<?xml version="1.0" standalone="no"?><!DOCTYPE svg PUBLIC "-//W3C//DTD SVG 1.1//EN" "http://www.w3.org/Graphics/SVG/1.1/DTD/svg11.dtd"><svg t="1571903439428" class="icon" viewBox="0 0 1024 1024" version="1.1" xmlns="http://www.w3.org/2000/svg" p-id="3662" xmlns:xlink="http://www.w3.org/1999/xlink" width="200" height="200"><defs><style type="text/css"></style></defs><path d="M513.57771852 124.60942222l388.48284445 355.10802963c-19.78216297 2.42725925-38.3506963 10.55857778-53.15697779 23.54441482l-0.24272593 0.24272592-0.24272592 0.24272593c-14.32082963 12.74311111-31.31164445 35.19525925-31.31164444 70.51188148v330.71407408H674.8690963V764.43496297c0-52.79288889-43.69066667-95.63401482-97.45445927-95.63401482H449.25534815c-53.76379259 0-97.45445925 42.96248889-97.45445926 95.63401482v140.41694814H211.26257778v-331.32088889c0-48.54518518-37.0157037-88.83768889-84.83271111-94.90583704l387.14785185-354.01576296m0-78.6432c-13.59265185 0-27.1853037 4.61179259-36.89434074 13.71401481L29.70358518 468.30933333c-16.01991111 13.71401482-20.6317037 34.34571852-12.01493333 53.15697778 8.61677037 18.32580741 26.94257778 29.12711111 48.05973333 29.12711111h48.05973334c13.71401482 0 24.63668148 10.31585185 24.63668148 22.81623703V929.48859259c0 26.33576297 23.42305185 48.05973333 52.06471111 48.05973333h182.04444444c28.64165925 0 52.06471111-21.72397037 52.06471112-48.05973333V764.43496297c0-12.62174815 10.92266667-22.81623703 24.63668148-22.81623705h128.15928888c13.71401482 0 24.63668148 10.31585185 24.63668149 22.81623705v165.17499258c0 26.33576297 23.42305185 48.05973333 52.67152593 48.05973334h182.04444444c29.24847408 0 53.27834075-21.72397037 53.27834074-48.05973334v-355.59348147c0-6.79632592 1.69908148-11.40811852 6.91768889-16.01991111 4.61179259-4.00497778 10.92266667-6.31087408 17.71899259-6.31087408H959.82933333c21.23851852 0 39.44296297-11.40811852 48.05973334-29.12711111 9.70903703-18.81125925 5.09724445-40.04977778-9.70903704-53.7637926L550.59342222 59.68023703c-9.70903703-9.10222222-23.42305185-13.71401482-37.0157037-13.71401481z" fill="#d81e06" p-id="3663"></path></svg>