<?xml version="1.0" standalone="no"?><!DOCTYPE svg PUBLIC "-//W3C//DTD SVG 1.1//EN" "http://www.w3.org/Graphics/SVG/1.1/DTD/svg11.dtd"><svg t="1571903512647" class="icon" viewBox="0 0 1024 1024" version="1.1" xmlns="http://www.w3.org/2000/svg" p-id="5220" xmlns:xlink="http://www.w3.org/1999/xlink" width="200" height="200"><defs><style type="text/css"></style></defs><path d="M871.53777778 889.74222222H167.936c-18.20444445 0-36.40888889-9.10222222-48.24177778-22.75555555l-0.91022222-0.91022222c-11.83288889-16.384-15.47377778-35.49866667-10.92266667-52.7928889 37.31911111-189.32622222 193.87733333-333.14133333 380.47288889-348.6151111 4.55111111-0.91022222 8.192-1.82044445 11.83288889-1.82044445h34.58844444l-4.5511111 45.51111111h-18.20444445c-7.28177778 0-10.92266667 0-16.384 1.82044444h-2.73066667c-168.39111111 11.83288889-309.47555555 141.08444445-342.24355555 313.11644445-0.91022222 4.55111111-0.91022222 10.92266667 3.64088889 15.47377778l0.91022222 1.82044444c2.73066667 3.64088889 7.28177778 5.46133333 12.74311111 5.46133333h704.512c5.46133333 0 10.01244445-1.82044445 12.74311111-5.46133333 4.55111111-5.46133333 5.46133333-10.92266667 4.55111111-17.29422222-20.93511111-112.86755555-89.20177778-208.44088889-185.68533333-263.05422222l-0.91022222-0.91022223c-7.28177778-4.55111111-16.384-9.10222222-24.576-13.65333333-2.73066667-1.82044445-5.46133333-2.73066667-8.192-4.55111111l-12.74311112-5.46133333 18.20444445-40.96 12.74311111 5.46133333c9.10222222 3.64088889 18.20444445 9.10222222 26.39644444 12.74311111l10.92266667 5.46133333c109.22666667 61.89511111 184.77511111 169.30133333 209.35111111 294.912 4.55111111 18.20444445 0 37.31911111-13.65333333 53.70311112-12.74311111 14.56355555-31.85777778 22.75555555-50.06222222 22.75555555z" fill="#d81e06" p-id="5221"></path><path d="M524.74311111 494.70577778c-114.688 0-209.35111111-94.66311111-209.35111111-209.35111111s94.66311111-209.35111111 209.35111111-209.35111112 209.35111111 94.66311111 209.35111111 209.35111112-95.57333333 209.35111111-209.35111111 209.35111111z m0-385.93422223C426.43911111 108.77155555 348.16 187.96088889 348.16 285.35466667s79.18933333 176.58311111 176.58311111 176.58311111 176.58311111-79.18933333 176.58311111-176.58311111-79.18933333-176.58311111-176.58311111-176.58311112z" fill="#d81e06" p-id="5222"></path><path d="M524.74311111 499.25688889c-118.32888889 0-213.90222222-95.57333333-213.90222222-213.90222222s95.57333333-213.90222222 213.90222222-213.90222222 213.90222222 95.57333333 213.90222222 213.90222222-96.48355555 213.90222222-213.90222222 213.90222222z m0-418.70222222c-112.86755555 0-204.8 91.93244445-204.8 204.8S411.87555555 490.15466667 524.74311111 490.15466667s204.8-91.93244445 204.8-204.8-91.93244445-204.8-204.8-204.8z m0 385.93422222c-100.12444445 0-181.13422222-81.00977778-181.13422222-181.13422222s81.00977778-181.13422222 181.13422222-181.13422222c100.12444445 0 181.13422222 81.00977778 181.13422222 181.13422222S623.95733333 466.48888889 524.74311111 466.48888889z m0-353.16622222c-94.66311111 0-172.032 77.36888889-172.032 172.032C352.71111111 380.01777778 430.08 457.38666667 524.74311111 457.38666667s172.032-77.36888889 172.032-172.032c0-94.66311111-77.36888889-172.032-172.032-172.032zM245.30488889 738.64533333c-1.82044445 0-4.55111111-0.91022222-6.37155556-1.82044444-6.37155555-3.64088889-9.10222222-11.83288889-5.46133333-18.20444444 80.09955555-155.648 253.952-184.77511111 261.23377778-185.68533334 7.28177778-0.91022222 14.56355555 3.64088889 15.47377777 10.92266667 0.91022222 7.28177778-3.64088889 14.56355555-10.92266666 15.47377777-1.82044445 0-167.48088889 28.21688889-241.20888889 171.12177778-2.73066667 5.46133333-7.28177778 8.192-12.74311111 8.192zM214.35733333 817.83466667c-7.28177778 0-13.65333333-6.37155555-13.65333333-13.65333334 0-26.39644445 17.29422222-54.61333333 20.02488889-57.344 3.64088889-6.37155555 12.74311111-8.192 19.11466666-4.55111111 6.37155555 3.64088889 8.192 12.74311111 4.55111112 19.11466667-4.55111111 6.37155555-15.47377778 27.30666667-15.47377778 42.78044444-0.91022222 7.28177778-6.37155555 13.65333333-14.56355556 13.65333334z" fill="#d81e06" p-id="5223"></path></svg>